***** Get.Him.To.The.Greek.2010.DVDRiP.XviD.MULTISUB-Zen_Bud ******

Format                           : AVI
Format profile                   : OpenDML
File size                        : 879 MiB
Duration                         : 1h 44mn
Overall bit rate                 : 1 174 Kbps
Writing application              : AVI-Mux GUI 1.17.8.3, 

Video

Format                           : MPEG-4 Visual
Codec ID/Hint                    : XviD
Duration                         : 1h 44mn
Bit rate                         : 1 042 Kbps
Width                            : 720 pixels
Height                           : 552 pixels
Display aspect ratio             : 1.855
Stream size                      : 780 MiB (89%)
Writing library                  : XviD 1.1.2 (UTC 2006-11-01)

Audio

Format                           : MPEG Audio
Codec ID/Hint                    : MP3
Duration                         : 1h 44mn
Bit rate                         : 128 Kbps
Channel(s)                       : 2 channels
Sampling rate                    : 48.0 KHz
Stream size                      : 95.8 MiB (11%)
Writing library                  : LAME3.98
Language                         : English


Text #1
Language                         : English

Text #2
Language                         : German

Text #3
Language                         : Turkish

Text #4
Language                         : Dutch

Text #5
Language                         : Danish

Text #6
Language                         : Finnish

Text #7
Language                         : Norwegian

Text #8
Language                         : Swedish


A record company intern is hired to accompany out-of-controlrock star Aldous Snow to a concert at L.A.'s Greek Theater.